<?xml version="1.0" standalone="no"?>
<!DOCTYPE svg PUBLIC "-//W3C//DTD SVG 20010904//EN"
 "http://www.w3.org/TR/2001/REC-SVG-20010904/DTD/svg10.dtd">
<svg version="1.0" xmlns="http://www.w3.org/2000/svg"
 width="544.000000pt" height="544.000000pt" viewBox="0 0 544.000000 544.000000"
 preserveAspectRatio="xMidYMid meet">
<metadata>
Created by potrace 1.11, written by Peter Selinger 2001-2013
</metadata>
<g transform="translate(0.000000,544.000000) scale(0.100000,-0.100000)"
fill="#000000" stroke="none">
<path d="M2820 3300 l0 -60 130 0 130 0 0 -420 0 -420 -130 0 -130 0 0 -60 0
-60 325 0 325 0 0 60 0 60 -125 0 -125 0 0 480 0 480 -200 0 -200 0 0 -60z"/>
<path d="M463 3049 c-119 -22 -221 -117 -254 -239 -17 -65 -20 -207 -5 -271
27 -116 106 -213 203 -249 84 -31 191 -28 269 9 93 44 148 107 168 194 l6 27
-60 0 c-59 0 -60 0 -80 -39 -31 -61 -81 -94 -150 -99 -74 -5 -118 9 -164 55
-52 53 -70 120 -64 247 5 100 19 148 60 196 42 49 142 73 211 51 45 -15 104
-82 113 -128 l6 -33 65 0 65 0 -7 43 c-14 84 -64 154 -138 197 -64 37 -166 53
-244 39z"/>
<path d="M1320 3049 c-79 -11 -129 -35 -177 -85 -42 -45 -70 -105 -58 -124 7
-11 105 -13 120 -2 6 4 17 20 25 36 22 43 73 66 148 66 110 0 172 -55 172
-150 l0 -40 -62 -1 c-282 -5 -421 -90 -421 -258 0 -97 67 -184 164 -211 86
-25 221 -3 285 45 39 30 44 31 44 6 0 -36 27 -51 92 -51 l60 0 -6 33 c-7 38
-15 195 -20 402 -4 171 -12 198 -75 261 -63 63 -170 89 -291 73z m230 -483 c0
-64 -3 -78 -24 -103 -56 -67 -191 -97 -264 -59 -59 31 -78 104 -42 163 34 56
78 70 228 72 l102 1 0 -74z"/>
<path d="M2388 3049 c-60 -7 -125 -38 -171 -85 -15 -15 -29 -25 -32 -23 -2 3
-5 24 -6 47 -2 24 -7 46 -12 49 -12 7 -106 7 -113 0 -3 -3 -8 -175 -10 -381
l-4 -376 70 0 70 0 0 226 c0 268 6 298 65 353 56 52 106 65 221 58 l92 -5 6
60 c4 33 4 63 1 66 -10 11 -118 17 -177 11z"/>
<path d="M3919 3049 c-66 -10 -130 -41 -172 -83 -148 -147 -151 -462 -7 -605
61 -61 120 -84 227 -89 81 -4 97 -2 146 21 106 48 172 133 201 256 33 144 -8
320 -96 410 -65 67 -193 105 -299 90z m135 -123 c77 -32 125 -117 133 -235 13
-199 -76 -320 -227 -309 -118 8 -182 100 -187 265 -4 140 34 230 115 273 44
23 119 26 166 6z"/>
<path d="M4815 3052 c-109 -11 -199 -63 -233 -136 -26 -55 -28 -101 -6 -156
28 -69 103 -108 318 -165 115 -31 165 -99 120 -164 -34 -47 -145 -66 -239 -40
-42 12 -105 71 -105 100 0 22 -20 29 -81 29 -60 0 -68 -13 -44 -75 48 -127
214 -201 389 -173 190 29 288 185 201 319 -31 48 -108 86 -263 129 -143 40
-176 61 -176 113 0 65 61 107 154 107 28 0 67 -7 88 -16 37 -15 81 -59 82 -81
0 -20 36 -33 90 -33 l52 0 -7 43 c-10 56 -28 89 -67 122 -69 59 -170 87 -273
77z"/>
</g>
</svg>
